<svg width="301" height="52" viewBox="0 0 301 52" fill="none" xmlns="http://www.w3.org/2000/svg">
<path d="M52.8585 0L50.6561 11.5283H38.1756L39.8886 5.64151H22.0244L18.8431 18.1509H48.6984L46.2512 28.4528L33.2813 38.2642H0L1.71301 32.1321H30.1L34.2602 28.4528V24.283H3.1813L6.11789 9.56604L20.8008 0H52.8585Z" fill="#082159"/>
<path d="M70.4781 0H57.5081L56.2846 5.64151H69.2545L70.4781 0Z" fill="#082159"/>
<path d="M61.913 38.2642L67.7862 11.5283H55.3057L49.4325 38.2642H61.913Z" fill="#082159"/>
<path d="M67.7862 38.2642L76.1065 0H119.176L126.763 9.07547L120.4 38.2642H107.185L113.548 10.3019L109.877 5.64151H87.8528L80.7561 38.2642H67.7862Z" fill="#082159"/>
<path d="M125.05 52L126.763 45.8679H160.044L165.428 42.434L172.769 5.64151H153.192L147.808 10.3019L143.159 32.6226H160.044L158.576 38.2642H128.72L134.594 10.3019L147.808 0H186.963L178.153 42.434L165.428 52H125.05Z" fill="#082159"/>
<path d="M214.86 32.6226L213.147 38.2642H185.005L191.367 10.3019L205.072 0H241.779L233.214 38.2642H219.51L227.096 5.64151H209.966L205.072 9.07547L199.443 32.6226H214.86Z" fill="#082159"/>
<path d="M252.791 38.2642H239.332L247.407 0H281.667L276.773 19.6226L272.613 23.0566L276.773 32.6226H279.954L284.849 12.0189H298.553L292.435 38.2642H267.963L261.846 24.5283H258.42L259.888 17.6604H266.74L269.432 5.64151H259.888L252.791 38.2642Z" fill="#082159"/>
<path d="M285.828 5.64151L287.051 0H301L299.776 5.64151H285.828Z" fill="#082159"/>
</svg>
